<svg xmlns="http://www.w3.org/2000/svg" viewBox="102 37 38 31" fill="#75dd52">
  <path d="M140 67.549h-7.451V37H140v30.549Z" />
  <path d="M136.275 37v7.824H109.45V37h26.824Z" />
  <path d="M109.451 67.549H102V44.824h7.451v22.725Z" />
  <path d="M117.275 52.275c6.014 0 7.637-4.89 7.637-7.452 0 5.868 5.131 7.452 7.637 7.452-6.014 0-7.637 4.928-7.637 7.45 0-6.053-5.091-7.45-7.637-7.45Z" />
  <path d="M117.275 59.912c6.014 0 7.637-5.012 7.637-7.637 0 6.014 5.131 7.637 7.637 7.637-6.014 0-7.637 5.051-7.637 7.637 0-6.205-5.091-7.637-7.637-7.637Z" />
</svg>
